Coordinates
version=1
nRows=16
nColumns=40
inDegrees=yes

Units are S.I. units (second, meters, Newtons, ...)
Angles are in degrees.

endheader
time	pelvis_tilt	pelvis_list	pelvis_rotation	pelvis_tx	pelvis_ty	pelvis_tz	hip_flexion_r	hip_adduction_r	hip_rotation_r	knee_angle_r	knee_angle_r_beta	ankle_angle_r	subtalar_angle_r	mtp_angle_r	hip_flexion_l	hip_adduction_l	hip_rotation_l	knee_angle_l	knee_angle_l_beta	ankle_angle_l	subtalar_angle_l	mtp_angle_l	lumbar_extension	lumbar_bending	lumbar_rotation	arm_flex_r	arm_add_r	arm_rot_r	elbow_flex_r	pro_sup_r	wrist_flex_r	wrist_dev_r	arm_flex_l	arm_add_l	arm_rot_l	elbow_flex_l	pro_sup_l	wrist_flex_l	wrist_dev_l
     44.88500000	     -7.51476352	     -4.15470846	     -3.90471884	      0.84162937	      0.92003849	      0.46491618	     29.81354572	      0.44301507	    -11.56786193	     18.01856961	     18.01856961	      4.11633780	     -2.36982644	      4.36281418	      6.85409242	     -6.65898128	     -7.99530224	     17.84180953	     17.84180953	     18.46873149	    -12.45715056	      1.16897268	    -10.76471416	      5.58256877	     -0.13462446	     -6.69184284	    -16.43333930	    -10.20912561	     22.46030422	     47.53820960	      0.00000000	      0.00000000	      0.23570374	    -13.60583388	    -13.72634416	     64.44561822	     46.54822978	      0.00000000	      0.00000000
     44.89721429	     -7.48331231	     -3.88534910	     -3.90762808	      0.84358764	      0.91812522	      0.46721683	     29.67146439	      0.37117340	    -11.74191074	     17.49071225	     17.49071225	      3.94790032	     -2.03965091	      4.47984092	      6.34201060	     -6.49135068	     -7.94125352	     18.04032251	     18.04032251	     18.97205170	    -12.58398575	      1.03034217	    -10.52403540	      5.36674400	     -0.28723395	     -7.10732559	    -16.27378119	    -10.22119066	     22.34881054	     47.53697962	      0.00000000	      0.00000000	      0.22367053	    -13.43531440	    -13.64670657	     64.49375450	     46.54592741	      0.00000000	      0.00000000
     44.90942857	     -7.49518275	     -3.74979616	     -3.95747335	      0.84551833	      0.91638906	      0.46979191	     29.60678102	      0.42349213	    -11.89874575	     17.43072063	     17.43072063	      3.70607330	     -1.95782240	      4.53903321	      5.85117941	     -6.49344095	     -7.92920600	     18.20055046	     18.20055046	     19.33158902	    -12.73719029	      0.92245128	    -10.26287390	      5.29901802	     -0.37016368	     -7.23794576	    -16.19456091	    -10.22202070	     22.31243134	     47.53640434	      0.00000000	      0.00000000	      0.25898888	    -13.32188225	    -13.60427890	     64.52791270	     46.54417903	      0.00000000	      0.00000000
     44.92164286	     -7.26428221	     -3.65905208	     -3.88020647	      0.84757228	      0.91506058	      0.47209703	     29.01162713	      0.28796341	    -12.93866178	     17.23649882	     17.23649882	      2.62455857	     -0.75014798	      1.18932119	      5.51554075	     -6.53386446	     -7.54063526	     19.19046804	     19.19046804	     20.41305000	    -13.03838642	      2.49593992	    -10.36361886	      5.31288819	      0.33432241	     -8.13955838	    -15.92589229	    -10.54318552	     22.54874787	     47.50894515	      0.00000000	      0.00000000	      0.83306046	    -12.76565180	    -13.00932078	     64.46232167	     46.55389350	      0.00000000	      0.00000000
     44.93385714	     -7.22667413	     -3.64463987	     -3.82397191	      0.84924855	      0.91363181	      0.47473053	     28.96561481	      0.37198036	    -12.89331294	     17.89529548	     17.89529548	      2.31109454	     -1.40398821	      0.40449634	      5.56448259	     -6.74628022	     -7.25754649	     20.41859723	     20.41859723	     20.75841756	    -13.59243149	      2.41269589	    -10.21923704	      5.39610620	      0.41819516	     -8.22017410	    -15.72734479	    -10.59657633	     22.53731534	     47.50409614	      0.00000000	      0.00000000	      0.90189324	    -12.40696557	    -12.91812319	     64.41104411	     46.55876760	      0.00000000	      0.00000000
     44.94607143	     -7.12710520	     -3.58266514	     -3.74294686	      0.85081452	      0.91256442	      0.47732989	     28.92312548	      0.34394393	    -12.85195208	     18.87367400	     18.87367400	      2.09752770	     -2.02517530	     -0.71104846	      5.74363068	     -6.91376221	     -6.91952331	     21.96699772	     21.96699772	     20.90771298	    -14.28063559	      2.37189657	    -10.15939610	      5.43615034	      0.58760416	     -8.17910036	    -15.49381746	    -10.63970491	     22.52676819	     47.49953972	      0.00000000	      0.00000000	      1.01753426	    -11.98397658	    -12.86951371	     64.26999453	     46.56544274	      0.00000000	      0.00000000
     44.95828571	     -6.89577307	     -3.58049594	     -3.64372397	      0.85224591	      0.91204225	      0.47996539	     28.69803812	      0.35643804	    -12.79283782	     19.91702847	     19.91702847	      2.09925897	     -2.57884189	     -1.59110342	      6.00185685	     -7.16488251	     -6.54788442	     23.89472175	     23.89472175	     20.84691097	    -15.09255858	      2.24757483	    -10.32448635	      5.53386545	      0.73936456	     -7.91453482	    -15.28796520	    -10.65531299	     22.57817713	     47.49507615	      0.00000000	      0.00000000	      1.15911379	    -11.59101497	    -12.83066516	     64.10227741	     46.56837627	      0.00000000	      0.00000000
     44.97050000	     -6.82245448	     -3.55721068	     -3.50453744	      0.85332873	      0.91159305	      0.48262211	     28.62135534	      0.36748449	    -12.64200067	     20.92821657	     20.92821657	      2.16183852	     -3.27944893	     -2.58817174	      6.78569613	     -7.43420028	     -6.07946794	     26.38774858	     26.38774858	     20.59422176	    -16.04052105	      2.12672247	    -10.30452224	      5.57112733	      0.90065580	     -7.57879804	    -15.01165358	    -10.67818842	     22.64672511	     47.48900166	      0.00000000	      0.00000000	      1.23374155	    -11.08245192	    -12.80461725	     63.77161517	     46.57147301	      0.00000000	      0.00000000
     44.98271429	     -6.53688685	     -3.60316974	     -3.34007078	      0.85434439	      0.91192456	      0.48523413	     28.17030809	      0.44393435	    -12.59444339	     21.73966511	     21.73966511	      2.46139027	     -3.75341501	     -3.18039304	      7.49114956	     -7.79223433	     -5.72513922	     29.10261539	     29.10261539	     20.07206635	    -16.91108631	      2.02655835	    -10.60252261	      5.72832740	      1.05009646	     -6.99381983	    -14.79579988	    -10.67382204	     22.81993511	     47.48154697	      0.00000000	      0.00000000	      1.37960403	    -10.70255311	    -12.76049822	     63.52362820	     46.57088447	      0.00000000	      0.00000000
     44.99492857	     -6.45938095	     -3.68197637	     -3.10173724	      0.85497316	      0.91221316	      0.48775463	     27.87284218	      0.56306481	    -12.55851157	     22.36442668	     22.36442668	      2.80569638	     -4.24173834	     -3.68323665	      8.76948131	     -8.23483606	     -5.29921550	     32.33106239	     32.33106239	     19.42918931	    -17.69071671	      2.04283444	    -10.64187555	      5.91229928	      1.14374936	     -6.36351364	    -14.56067734	    -10.67265456	     23.03225476	     47.47162556	      0.00000000	      0.00000000	      1.40833563	    -10.25185648	    -12.70261651	     63.13503591	     46.56742491	      0.00000000	      0.00000000
     45.00714286	     -6.37860009	     -3.80453601	     -2.86615742	      0.85539383	      0.91284000	      0.49033295	     27.44336321	      0.76670508	    -12.55109422	     22.71066816	     22.71066816	      3.17964062	     -4.61981613	     -4.03206212	     10.21672142	     -8.75713348	     -4.92361814	     35.77697005	     35.77697005	     18.73516721	    -18.21504766	      2.44517450	    -10.70424064	      6.10953056	      1.19243722	     -5.58232785	    -14.34238039	    -10.66979368	     23.34145786	     47.45701286	      0.00000000	      0.00000000	      1.42688416	     -9.84934032	    -12.63778744	     62.66254981	     46.56354477	      0.00000000	      0.00000000
     45.01935714	     -6.33566701	     -3.93664775	     -2.61189069	      0.85558736	      0.91369087	      0.49284412	     26.92573467	      1.00984594	    -12.58698632	     22.76683856	     22.76683856	      3.58727115	     -4.93350282	     -4.27822520	     11.86215961	     -9.25852594	     -4.45598139	     39.37190535	     39.37190535	     18.32484201	    -18.56268555	      4.10554835	    -10.75879475	      6.31117994	      1.16528086	     -4.62771780	    -14.12512929	    -10.66082897	     23.81305802	     47.42814657	      0.00000000	      0.00000000	      1.48255449	     -9.52739133	    -12.58222986	     62.00374606	     46.56526021	      0.00000000	      0.00000000
     45.03157143	     -6.22511276	     -4.05331471	     -2.32220473	      0.85559414	      0.91486571	      0.49515372	     26.26787226	      1.20688722	    -12.75099964	     22.66877906	     22.66877906	      4.05526288	     -4.94609182	     -4.47415397	     13.63260459	     -9.56941755	     -3.62216589	     43.17889107	     43.17889107	     19.14010719	    -18.73202304	      9.52495882	    -10.90005199	      6.52290959	      1.14668348	     -3.67161458	    -13.97899488	    -10.55835985	     24.58042118	     47.34696880	      0.00000000	      0.00000000	      1.54176451	     -9.26457781	    -12.43411632	     61.18752783	     46.58384940	      0.00000000	      0.00000000
     45.04378571	     -6.12880456	     -4.25797719	     -2.08517816	      0.85548827	      0.91604152	      0.49763346	     25.52895642	      1.53142534	    -13.01191018	     22.35633010	     22.35633010	      4.51331056	     -4.75422995	     -4.57257673	     15.24068168	    -10.16476054	     -3.25368932	     46.37891438	     46.37891438	     18.08187625	    -18.98295231	      9.87404978	    -11.05501384	      6.75376195	      1.39370070	     -2.66839627	    -13.83492974	    -10.49711748	     25.02697682	     47.32562507	      0.00000000	      0.00000000	      1.56426616	     -8.95989229	    -12.24092583	     61.10712476	     46.57215282	      0.00000000	      0.00000000
     45.05600000	     -6.14774559	     -4.40640525	     -1.82199476	      0.85513301	      0.91720623	      0.49991453	     24.84065916	      1.79305829	    -13.35427729	     21.85342446	     21.85342446	      4.84932162	     -4.42168086	     -4.74277720	     17.16207686	    -10.49946408	     -2.50257695	     49.68698203	     49.68698203	     18.66209896	    -19.09263385	     14.80049266	    -11.06686933	      6.94900726	      1.19624333	     -1.57552413	    -13.74459475	    -10.08996981	     26.20150527	     47.20327038	      0.00000000	      0.00000000	      1.30440098	     -9.00876950	    -11.67973556	     60.69439933	     46.55860109	      0.00000000	      0.00000000
     45.06821429	     -6.15797928	     -4.60960535	     -1.62822595	      0.85471814	      0.91830307	      0.50236791	     24.14682014	      2.16810631	    -13.60617917	     21.32635788	     21.32635788	      5.18853724	     -4.19083409	     -4.79794467	     18.85006305	    -11.04765074	     -2.10141775	     52.28825394	     52.28825394	     17.79351681	    -19.23019719	     15.20476147	    -11.08004906	      7.15137976	      1.49267594	     -0.48644116	    -13.67236655	     -9.98582574	     26.73590781	     47.17492064	      0.00000000	      0.00000000	      1.26241291	     -8.79899609	    -11.49693928	     60.55814155	     46.54718905	      0.00000000	      0.00000000
